<?xml version="1.0" encoding="iso-8859-1"?>
<!-- Generator: Adobe Illustrator 19.0.0, SVG Export Plug-In . SVG Version: 6.00 Build 0)  -->
<svg version="1.1" id="Layer_1" xmlns="http://www.w3.org/2000/svg" xmlns:xlink="http://www.w3.org/1999/xlink" x="0px" y="0px"
	 viewBox="0 0 512 512" style="enable-background:new 0 0 512 512;" xml:space="preserve">
<g>
	<g>
		<path d="M503.983,371.975h-17.784c-1.992-60.806-26.597-117.683-69.823-160.91c-43.227-43.226-100.104-67.832-160.91-69.823
			v-0.682c0-9.136-7.432-16.568-16.568-16.568h-34.205c-9.136,0-16.568,7.432-16.568,16.568v0.534H16.033v-0.534
			c0-4.427-3.589-8.017-8.017-8.017c-4.427,0-8.017,3.589-8.017,8.017v119.716c0,4.427,3.589,8.017,8.017,8.017
			c4.427,0,8.017-3.589,8.017-8.017v-0.534h172.092v0.534c0,9.136,7.432,16.568,16.568,16.568h34.205
			c9.136,0,16.568-7.432,16.568-16.568v-0.261c59.932,3.965,107.996,52.028,111.96,111.96h-25.914c-4.427,0-8.017,3.589-8.017,8.017
			c0,4.427,3.589,8.017,8.017,8.017h162.472c4.427,0,8.017-3.589,8.017-8.017C512,375.564,508.411,371.975,503.983,371.975z
			 M188.125,243.708H16.033v-86.58h172.092V243.708z M239.432,260.276c0,0.295-0.239,0.534-0.534,0.534h-34.205
			c-0.295,0-0.534-0.239-0.534-0.534V140.559c0-0.295,0.239-0.534,0.534-0.534h34.205c0.295,0,0.534,0.239,0.534,0.534V260.276z
			 M383.491,371.975c-4.01-68.776-59.25-124.015-128.026-128.025v-86.663c116.525,4.142,210.545,98.162,214.688,214.687H383.491z"/>
	</g>
</g>
<g>
	<g>
		<path d="M431.833,290.998c-4.47-9.246-9.691-18.237-15.517-26.723c-2.504-3.649-7.495-4.579-11.146-2.072
			c-3.65,2.505-4.578,7.496-2.071,11.146c5.369,7.822,10.181,16.108,14.301,24.628c1.383,2.861,4.245,4.529,7.222,4.529
			c1.17,0,2.36-0.258,3.484-0.802C432.092,299.778,433.761,294.984,431.833,290.998z"/>
	</g>
</g>
<g>
	<g>
		<path d="M389.845,232.945c-29.552-28.623-66.483-47.49-106.802-54.562c-4.361-0.765-8.516,2.151-9.281,6.511
			c-0.765,4.361,2.151,8.517,6.511,9.281c37.146,6.515,71.179,23.904,98.417,50.286c1.557,1.508,3.567,2.259,5.576,2.259
			c2.095,0,4.187-0.816,5.759-2.439C393.107,241.101,393.026,236.026,389.845,232.945z"/>
	</g>
</g>
<g>
	<g>
		<path d="M414.152,344.101c-1.965-9.161-4.712-18.223-8.165-26.933c-1.631-4.116-6.293-6.128-10.407-4.497
			c-4.116,1.632-6.129,6.292-4.497,10.407c3.127,7.885,5.614,16.089,7.391,24.383c0.806,3.764,4.131,6.339,7.831,6.339
			c0.557,0,1.121-0.059,1.688-0.18C412.323,352.692,415.08,348.43,414.152,344.101z"/>
	</g>
</g>
<g>
	<g>
		<path d="M386.471,281.279c-17.176-24.146-40.417-43.497-67.209-55.957c-4.014-1.865-8.782-0.125-10.649,3.889
			c-1.867,4.015-0.126,8.782,3.889,10.649c24.276,11.29,45.336,28.826,60.903,50.713c1.564,2.199,4.033,3.37,6.54,3.37
			c1.607,0,3.23-0.482,4.64-1.485C388.192,289.893,389.038,284.888,386.471,281.279z"/>
	</g>
</g>
<g>
</g>
<g>
</g>
<g>
</g>
<g>
</g>
<g>
</g>
<g>
</g>
<g>
</g>
<g>
</g>
<g>
</g>
<g>
</g>
<g>
</g>
<g>
</g>
<g>
</g>
<g>
</g>
<g>
</g>
</svg>
