<?xml version="1.0" encoding="iso-8859-1"?>
<!-- Generator: Adobe Illustrator 19.0.0, SVG Export Plug-In . SVG Version: 6.00 Build 0)  -->
<svg version="1.1" id="Layer_1" xmlns="http://www.w3.org/2000/svg" xmlns:xlink="http://www.w3.org/1999/xlink" x="0px" y="0px"
	 viewBox="0 0 512 512" style="enable-background:new 0 0 512 512;" xml:space="preserve">
<g>
	<g>
		<g>
			<path d="M256,0C114.848,0,0,114.848,0,256s114.848,256,256,256s256-114.848,256-256S397.152,0,256,0z M256,490.667
				C126.603,490.667,21.333,385.397,21.333,256S126.603,21.333,256,21.333S490.667,126.603,490.667,256S385.397,490.667,256,490.667
				z"/>
			<path d="M362.667,202.667h-53.333v-53.333c0-5.891-4.776-10.667-10.667-10.667h-85.333c-5.891,0-10.667,4.776-10.667,10.667
				v53.333h-53.333c-5.891,0-10.667,4.776-10.667,10.667v85.333c0,5.891,4.776,10.667,10.667,10.667h53.333v53.333
				c0,5.891,4.776,10.667,10.667,10.667h85.333c5.891,0,10.667-4.776,10.667-10.667v-53.333h53.333
				c5.891,0,10.667-4.776,10.667-10.667v-85.333C373.333,207.442,368.558,202.667,362.667,202.667z M352,288h-53.333
				c-5.891,0-10.667,4.776-10.667,10.667V352h-64v-53.333c0-5.891-4.776-10.667-10.667-10.667H160v-64h53.333
				c5.891,0,10.667-4.776,10.667-10.667V160h64v53.333c0,5.891,4.776,10.667,10.667,10.667H352V288z"/>
			<path d="M256,50.763C142.837,50.763,50.763,142.827,50.763,256S142.837,461.237,256,461.237S461.237,369.173,461.237,256
				S369.163,50.763,256,50.763z M256,439.904c-101.408,0-183.904-82.496-183.904-183.904S154.592,72.096,256,72.096
				S439.904,154.592,439.904,256S357.408,439.904,256,439.904z"/>
		</g>
	</g>
</g>
<g>
</g>
<g>
</g>
<g>
</g>
<g>
</g>
<g>
</g>
<g>
</g>
<g>
</g>
<g>
</g>
<g>
</g>
<g>
</g>
<g>
</g>
<g>
</g>
<g>
</g>
<g>
</g>
<g>
</g>
</svg>
